#!OML:ASF I:\Actors\actors\Patient Classification 2\Patient 1\Session 1\actor1.ASF
:FULLY-SPECIFIED
:DEGREES
689
root -1.15007 18.1225 5.62724 -2.36206 -1.35119 -3.9448
lowerback 4.54668 -0.367953 5.02734
upperback -0.0771963 -0.132321 3.37485
thorax -2.63708 -0.111019 0.669946
lowerneck -11.0297 -1.9562 0.406695
upperneck 29.7056 -3.03657 0.21744
head 11.4678 -1.30668 -0.383795
rclavicle -1.40454e-014 5.96354e-014
rhumerus -27.181 32.5183 -90.7179
rradius 93.1498
rwrist 20.8265
rhand -17.7046 -39.3256
rfingers 7.12502
rthumb 8.55545 -69.1322
lclavicle -1.40454e-014 5.96354e-014
lhumerus -25.8375 -21.2877 97.411
lradius 88.5336
lwrist 0.502952
lhand -5.65238 -22.8818
lfingers 7.12502
lthumb 20.1665 6.09148
rfemur 0 0 0
rtibia 0
rfoot 0 0
rtoes 0
lfemur 19.5024 -5.54639 -12.3746
ltibia -17.8776
lfoot -2.4888 18.2263
ltoes -12.073
690
root -1.14193 18.1302 5.63294 -2.13544 -0.892077 -3.94991
lowerback 4.24551 -0.459258 5.02152
upperback -0.131119 -0.277273 3.25569
thorax -2.52762 -0.182496 0.557697
lowerneck -11.1167 -1.88967 0.198718
upperneck 30.0001 -2.94447 0.378552
head 11.6076 -1.26465 -0.28003
rclavicle -4.73356e-015 -2.46493e-014
rhumerus -27.0556 32.2621 -90.4272
rradius 93.8252
rwrist 17.3106
rhand -20.3593 -39.331
rfingers 7.12502
rthumb 5.99292 -69.2262
lclavicle -4.73356e-015 -2.46493e-014
lhumerus -26.2122 -20.9189 97.4646
lradius 88.7466
lwrist 4.72645
lhand -5.89106 -22.3547
lfingers 7.12502
lthumb 19.9371 6.64255
rfemur 0 0 0
rtibia 0
rfoot 0 0
rtoes 0
lfemur 19.1336 -5.73681 -12.3473
ltibia -17.8606
lfoot -2.34713 18.0011
ltoes -12.1504
691
root -1.14091 18.1297 5.63138 -2.14061 -1.11326 -3.94377
lowerback 4.29323 -0.329893 4.8742
upperback -0.0782227 -0.114089 3.16731
thorax -2.49488 -0.0988965 0.5379
lowerneck -11.2615 -1.84012 0.0516605
upperneck 30.285 -2.86865 0.465954
head 11.7538 -1.23232 -0.216043
rclavicle 3.08116e-015 -4.77083e-015
rhumerus -26.1665 30.939 -89.4328
rradius 94.4536
rwrist 17.3298
rhand -18.086 -39.7081
rfingers 7.12502
rthumb 8.18731 -69.5294
lclavicle 3.08116e-015 -4.77083e-015
lhumerus -26.629 -20.5197 97.4995
lradius 88.9615
lwrist 8.87173
lhand -6.26754 -21.7451
lfingers 7.12502
lthumb 19.5752 7.28946
rfemur 0 0 0
rtibia 0
rfoot 0 0
rtoes 0
lfemur 19.1792 -5.64602 -12.3717
ltibia -17.8349
lfoot -2.43133 18.0977
ltoes -12.2706
692
root -1.1418 18.1272 5.62697 -2.21052 -1.52449 -3.94355
lowerback 4.45156 -0.138109 4.70072
upperback -0.0168746 0.138637 3.0905
thorax -2.51365 0.0288665 0.539199
lowerneck -11.3979 -1.80062 -0.0430791
upperneck 30.6288 -2.81375 0.529543
head 11.9213 -1.20623 -0.172425
rclavicle 3.38555e-015 5.32743e-014
rhumerus -25.4677 30.2789 -88.801
rradius 95.01
rwrist 14.8863
rhand -20.3837 -39.0473
rfingers 7.12502
rthumb 5.9694 -68.9432
lclavicle 3.38555e-015 5.32743e-014
lhumerus -27.1808 -20.1485 97.5804
lradius 89.3564
lwrist 13.1662
lhand -6.92136 -20.6744
lfingers 7.12502
lthumb 18.9465 8.42287
rfemur 0 0 0
rtibia 0
rfoot 0 0
rtoes 0
lfemur 19.351 -5.53268 -12.4097
ltibia -17.8147
lfoot -2.61164 18.3571
ltoes -12.2043
693
root -1.13526 18.1285 5.62294 -2.17817 -1.8138 -3.96851
lowerback 4.53303 0.00524879 4.70553
upperback -0.0179696 0.332687 2.97544
thorax -2.55486 0.124013 0.405062
lowerneck -11.4524 -1.76241 -0.0981161
upperneck 30.9672 -2.77188 0.598545
head 12.0705 -1.18154 -0.133929
rclavicle -3.70236e-015 -4.45278e-014
rhumerus -24.506 29.1739 -87.8813
rradius 95.587
rwrist 14.1233
rhand -20.5643 -38.691
rfingers 7.12502
rthumb 5.79506 -68.5918
lclavicle -3.70236e-015 -4.45278e-014
lhumerus -27.9057 -19.8425 97.6808
lradius 89.7952
lwrist 17.5961
lhand -8.21801 -19.4802
lfingers 7.12502
lthumb 17.6991 9.73429
rfemur 0 0 0
rtibia 0
rfoot 0 0
rtoes 0
lfemur 19.3884 -5.59013 -12.4521
ltibia -17.8144
lfoot -2.75674 18.6798
ltoes -11.8553
694
root -1.115 18.1353 5.61878 -1.9926 -2.14115 -4.01592
lowerback 4.50405 0.14185 4.96678
upperback -0.0735276 0.524427 2.79731
thorax -2.58688 0.213808 0.063188
lowerneck -11.4444 -1.72153 -0.0929245
upperneck 31.2593 -2.7463 0.685737
head 12.1885 -1.15583 -0.0999325
rclavicle -1.11816e-015 1.59028e-015
rhumerus -23.5007 27.8541 -87.0283
rradius 96.13
rwrist 13.6219
rhand -20.4084 -37.8296
rfingers 7.12502
rthumb 5.94549 -67.7262
lclavicle -1.11816e-015 1.59028e-015
lhumerus -28.7785 -19.6042 97.7462
lradius 90.2566
lwrist 22.1886
lhand -10.1256 -18.503
lfingers 7.12502
lthumb 15.8627 10.8672
rfemur 0 0 0
rtibia 0
rfoot 0 0
rtoes 0
lfemur 19.2616 -5.77969 -12.5361
ltibia -17.8284
lfoot -2.90762 19.178
ltoes -11.5667
695
root -1.1264 18.13 5.63112 -2.04573 -2.15648 -4.07448
lowerback 4.32688 0.17258 4.6998
upperback 0.0157635 0.533225 2.75885
thorax -2.39641 0.225629 0.172286
lowerneck -11.4502 -1.67506 -0.0622804
upperneck 31.5085 -2.69287 0.692408
head 12.2905 -1.12533 -0.0967
rclavicle 6.55989e-015 -1.27222e-014
rhumerus -22.5441 26.1375 -86.2493
rradius 96.688
rwrist 13.6199
rhand -19.5775 -35.9032
rfingers 7.12502
rthumb 6.74769 -65.7757
lclavicle 6.55989e-015 -1.27222e-014
lhumerus -29.675 -19.2267 97.788
lradius 90.9698
lwrist 27.1436
lhand -11.7571 -17.037
lfingers 7.12502
lthumb 14.2911 12.4512
rfemur 0 0 0
rtibia 0
rfoot 0 0
rtoes 0
lfemur 19.3993 -5.55478 -12.3819
ltibia -17.8479
lfoot -2.92243 18.9143
ltoes -11.6649
696
root -1.12659 18.1296 5.63428 -2.05381 -2.16278 -4.1176
lowerback 4.25103 0.195179 4.61706
upperback 0.072629 0.549337 2.6872
thorax -2.29451 0.236547 0.143877
lowerneck -11.4392 -1.62769 -0.0938322
upperneck 31.7021 -2.621 0.700354
head 12.3677 -1.09435 -0.0790596
rclavicle 4.86091e-016 8.34896e-015
rhumerus -20.899 25.0304 -84.9396
rradius 96.7388
rwrist 13.0533
rhand -18.9778 -34.1732
rfingers 7.12502
rthumb 7.32654 -64.0264
lclavicle 4.86091e-016 8.34896e-015
lhumerus -30.5532 -18.7202 97.8135
lradius 91.7884
lwrist 32.1594
lhand -12.7868 -14.974
lfingers 7.12502
lthumb 13.2987 14.5816
rfemur 0 0 0
rtibia 0
rfoot 0 0
rtoes 0
lfemur 19.4373 -5.49041 -12.3217
ltibia -17.8547
lfoot -2.93026 18.8325
ltoes -11.6098
697
root -1.12289 18.1315 5.62979 -2.03091 -2.10297 -4.11902
lowerback 4.27428 0.207321 4.56367
upperback 0.0805616 0.561562 2.57778
thorax -2.29827 0.242711 0.060065
lowerneck -11.4228 -1.61231 -0.163916
upperneck 31.9366 -2.62886 0.836957
head 12.4643 -1.08677 -0.0167109
rclavicle 1.23184e-014 -8.34896e-015
rhumerus -19.2232 23.9169 -83.6284
rradius 96.6135
rwrist 12.4214
rhand -18.8384 -32.7438
rfingers 7.12502
rthumb 7.46109 -62.5922
lclavicle 1.23184e-014 -8.34896e-015
lhumerus -31.5366 -18.2765 97.8684
lradius 92.488
lwrist 36.5197
lhand -13.9907 -13.3113
lfingers 7.12502
lthumb 12.1381 16.3166
rfemur 0 0 0
rtibia 0
rfoot 0 0
rtoes 0
lfemur 19.37 -5.46954 -12.3234
ltibia -17.8426
lfoot -2.848 18.7764
ltoes -11.8514
698
root -1.11891 18.1317 5.6252 -1.99983 -2.09501 -4.09039
lowerback 4.30443 0.246264 4.45975
upperback 0.0815584 0.607743 2.46933
thorax -2.3124 0.266104 0.00332531
lowerneck -11.4812 -1.64247 -0.197299
upperneck 32.2659 -2.71524 0.969904
head 12.617 -1.1088 0.0261766
rclavicle -9.06955e-015 8.74653e-015
rhumerus -17.1349 22.7336 -82.0145
rradius 96.0636
rwrist 12.5846
rhand -17.502 -31.493
rfingers 7.12502
rthumb 8.75095 -61.2916
lclavicle -9.06955e-015 8.74653e-015
lhumerus -32.5854 -17.8954 97.9917
lradius 93.1289
lwrist 40.1483
lhand -15.5842 -12.0845
lfingers 7.12502
lthumb 10.6013 17.6281
rfemur 0 0 0
rtibia 0
rfoot 0 0
rtoes 0
lfemur 19.2832 -5.54535 -12.3744
ltibia -17.7966
lfoot -2.88421 18.8455
ltoes -11.6054
